#!OML:ASF E:\Steps\Project 1\Capture day 1\Session 2\Subject.ASF
:FULLY-SPECIFIED
:DEGREES
117
root 8.54664 16.2781 31.0454 -151.589 -0.405174 177.942
lowerback -28.3125 -1.63748 -6.28972
upperback -1.25725 -0.693754 -0.442139
thorax 13.6498 -0.947745 2.62679
lowerneck -4.18688 -4.15215 -0.820775
upperneck 8.36053 -6.1021 4.20962
head 3.62963 -2.96617 1.24843
rclavicle 2.43511e-015 2.50469e-014
rhumerus -37.5407 -19.7636 -78.3381
rradius 32.4388
rwrist -0.620922
rhand -7.31383 -52.0173
rfingers 7.12502
rthumb 18.569 -81.151
lclavicle 2.43511e-015 2.50469e-014
lhumerus -27.6502 8.72938 80.1817
lradius 20.1516
lwrist -4.5317
lhand -21.4541 -13.0517
lfingers 7.12502
lthumb 4.93593 16.8709
rfemur -24.4346 5.86297 19.7901
rtibia 6.3992
rfoot -20.3779 -8.2528
rtoes -29.5464
lfemur -27.1865 -9.72862 -16.8125
ltibia 12.0922
lfoot -11.6104 7.02192
ltoes -44.5038
118
root 8.55377 16.2725 31.0334 -151.584 -0.38689 177.851
lowerback -28.349 -1.67254 -6.32758
upperback -1.27284 -0.727444 -0.467273
thorax 13.6509 -0.966472 2.60611
lowerneck -4.54794 -4.45202 -0.269762
upperneck 8.81247 -6.49464 3.40434
head 3.8109 -3.1637 0.85567
rclavicle -3.77691e-015 -1.59028e-015
rhumerus -37.5856 -19.5254 -78.4404
rradius 32.4314
rwrist -0.917559
rhand -7.08202 -51.538
rfingers 7.12502
rthumb 18.7919 -80.6503
lclavicle -3.77691e-015 -1.59028e-015
lhumerus -27.8465 8.36022 80.2846
lradius 20.2918
lwrist -4.10755
lhand -21.6051 -12.7183
lfingers 7.12502
lthumb 4.79008 17.2075
rfemur -24.4388 5.56017 19.7906
rtibia 6.46226
rfoot -20.5514 -8.01557
rtoes -29.5445
lfemur -27.3056 -9.71517 -16.9392
ltibia 12.4347
lfoot -11.6722 7.08624
ltoes -44.6998
119
root 8.5651 16.2674 31.0193 -151.457 -0.545455 177.87
lowerback -28.5968 -1.76872 -6.24988
upperback -1.23329 -0.864855 -0.432098
thorax 13.8241 -1.03004 2.54438
lowerneck -4.21038 -4.57151 -0.533769
upperneck 8.60243 -6.25297 3.64274
head 3.68666 -2.89022 1.01191
rclavicle 1.49089e-015 -3.26007e-014
rhumerus -37.442 -19.4001 -78.5918
rradius 32.4162
rwrist -1.0072
rhand -7.10903 -52.3782
rfingers 7.12502
rthumb 18.766 -81.493
lclavicle 1.49089e-015 -3.26007e-014
lhumerus -27.8803 8.57896 80.1874
lradius 20.3067
lwrist -4.15989
lhand -21.4573 -12.7062
lfingers 7.12502
lthumb 4.93278 17.2164
rfemur -24.5229 5.49225 19.931
rtibia 6.51945
rfoot -20.599 -8.12109
rtoes -29.8586
lfemur -27.6265 -9.7547 -16.8286
ltibia 12.8742
lfoot -11.6808 7.01513
ltoes -45.236
120
root 8.58034 16.2643 31.0109 -151.365 -0.662534 177.917
lowerback -28.7783 -1.86205 -6.23437
upperback -1.16192 -0.979329 -0.358855
thorax 14.0026 -1.0853 2.56764
lowerneck -4.05839 -4.56056 -0.605916
upperneck 8.5118 -6.22479 3.56583
head 3.62419 -2.88672 1.00425
rclavicle -3.23025e-015 9.93923e-015
rhumerus -37.166 -19.5732 -78.6194
rradius 32.2988
rwrist -0.785485
rhand -7.36166 -53.4348
rfingers 7.12502
rthumb 18.523 -82.5729
lclavicle -3.23025e-015 9.93923e-015
lhumerus -27.753 9.23653 80.0019
lradius 20.1337
lwrist -4.66744
lhand -21.1398 -13.0932
lfingers 7.12502
lthumb 5.23936 16.822
rfemur -24.6468 5.86986 20.0079
rtibia 6.69332
rfoot -20.6232 -8.53558
rtoes -29.5993
lfemur -27.9053 -9.84036 -16.638
ltibia 13.2907
lfoot -11.7638 7.06795
ltoes -46.4814
121
root 8.5968 16.2659 31.0074 -151.305 -0.625176 177.971
lowerback -28.8352 -1.87491 -6.23948
upperback -1.12267 -0.988126 -0.330546
thorax 14.076 -1.09101 2.59666
lowerneck -4.10259 -4.58047 -0.552424
upperneck 8.46772 -6.24882 3.44216
head 3.61027 -2.90458 0.952295
rclavicle 0 -3.06128e-014
rhumerus -37.0716 -19.7304 -78.5937
rradius 32.1548
rwrist -0.552287
rhand -8.15877 -52.0459
rfingers 7.12502
rthumb 17.7561 -81.2553
lclavicle 0 -3.06128e-014
lhumerus -27.6647 9.54953 79.8794
lradius 20.0497
lwrist -4.94705
lhand -20.8286 -13.3382
lfingers 7.12502
lthumb 5.53983 16.5694
rfemur -24.8065 6.37902 20.0216
rtibia 6.91902
rfoot -20.6879 -8.91703
rtoes -28.8571
lfemur -28.168 -9.7425 -16.5009
ltibia 13.7556
lfoot -11.9122 7.10131
ltoes -46.9145
122
root 8.6098 16.2683 31.0017 -151.304 -0.531478 177.945
lowerback -28.843 -1.86845 -6.27327
upperback -1.06816 -0.954498 -0.363735
thorax 14.1392 -1.07707 2.59192
lowerneck -4.36368 -4.61461 -0.384046
upperneck 8.47191 -6.30454 3.29695
head 3.65041 -2.93296 0.866579
rclavicle 4.27387e-015 5.1684e-015
rhumerus -37.0869 -19.5635 -78.7185
rradius 32.3197
rwrist -0.615226
rhand -8.33873 -51.8324
rfingers 7.12502
rthumb 17.5829 -81.0574
lclavicle 4.27387e-015 5.1684e-015
lhumerus -27.6673 9.26489 79.9018
lradius 20.1719
lwrist -4.68406
lhand -20.7648 -13.2092
lfingers 7.12502
lthumb 5.60145 16.6968
rfemur -24.8629 6.48188 20.0087
rtibia 7.04632
rfoot -20.7641 -8.91959
rtoes -28.7674
lfemur -28.3417 -9.64901 -16.5269
ltibia 14.1936
lfoot -12.1441 7.01795
ltoes -46.2559
